<?xml version="1.0" encoding="UTF-8"?>
<svg id="Isolation_Mode" xmlns="http://www.w3.org/2000/svg" version="1.1" viewBox="0 0 215 244.7">
  <!-- Generator: Adobe Illustrator 29.0.1, SVG Export Plug-In . SVG Version: 2.1.0 Build 192)  -->
  <defs>
    <style>
      .st0, .st1 {
        fill: #00a4bc;
      }

      .st1 {
        stroke: #00a4bc;
        stroke-miterlimit: 10;
        stroke-width: .2px;
      }
    </style>
  </defs>
  <path class="st1" d="M107.5,211.6c-7.5,0-14.5-3.4-19.2-9.3-5.7-7.2-14.6-10.9-23.8-9.9-7.5.9-14.8-1.7-20.1-7s-7.9-12.7-7-20.1c1.1-9.2-2.6-18.1-9.9-23.8-5.9-4.7-9.3-11.7-9.3-19.2s3.4-14.5,9.3-19.2c7.2-5.7,10.9-14.7,9.9-23.8-.9-7.5,1.7-14.8,7-20.1s12.7-7.9,20.1-7c9.2,1,18.1-2.6,23.8-9.9,4.7-5.9,11.7-9.3,19.2-9.3s14.5,3.4,19.2,9.3c5.7,7.2,14.7,10.9,23.8,9.9,7.4-.9,14.8,1.7,20.1,7s7.9,12.7,7,20.1c-1.1,9.2,2.6,18.1,9.9,23.8h0c5.9,4.7,9.3,11.7,9.3,19.2s-3.4,14.5-9.3,19.2c-7.2,5.7-10.9,14.7-9.9,23.8.9,7.5-1.7,14.8-7,20.1s-12.7,7.9-20.1,7c-9.2-1-18.1,2.6-23.8,9.9-4.7,5.9-11.7,9.3-19.2,9.3ZM67.6,186.7c9.7,0,18.9,4.4,25.1,12.1,3.6,4.6,9,7.2,14.9,7.2s11.2-2.6,14.9-7.2c6.9-8.7,17.7-13.2,28.8-11.9,5.8.7,11.5-1.3,15.6-5.4,4.1-4.1,6.1-9.8,5.4-15.6-1.3-11.1,3.2-21.9,11.9-28.8,4.6-3.6,7.2-9,7.2-14.9s-2.6-11.2-7.2-14.9h0c-8.7-7-13.2-17.7-11.9-28.8.7-5.8-1.3-11.5-5.4-15.6-4.1-4.1-9.8-6-15.6-5.4-11.1,1.3-21.9-3.2-28.8-11.9-3.6-4.6-9-7.2-14.9-7.2s-11.2,2.6-14.9,7.2c-6.9,8.7-17.7,13.3-28.8,11.9-5.7-.6-11.5,1.3-15.6,5.4s-6.1,9.8-5.4,15.6c1.3,11.1-3.2,21.9-11.9,28.8-4.6,3.6-7.2,9-7.2,14.9s2.6,11.2,7.2,14.9c8.7,6.9,13.2,17.7,11.9,28.8-.7,5.8,1.3,11.5,5.4,15.6s9.8,6,15.6,5.4c1.2-.1,2.4-.2,3.7-.2Z"/>
  <path class="st1" d="M107.5,181.7c-33.1,0-60.1-26.9-60.1-60.1s26.9-60.1,60.1-60.1,60.1,26.9,60.1,60.1-27,60.1-60.1,60.1ZM107.5,67.1c-30.1,0-54.5,24.5-54.5,54.6s24.5,54.5,54.5,54.5,54.5-24.5,54.5-54.5-24.4-54.6-54.5-54.6Z"/>
  <path class="st0" d="M130.1,128.6l12.3-14.7c1-1.2,1.3-2.8.8-4.2-.5-1.4-1.7-2.6-3.1-2.9l-18.6-4.7-10.2-16.3c-.8-1.3-2.2-2.1-3.7-2.1s-2.9.8-3.7,2.1l-10.3,16.2-18.6,4.7c-1.5.4-2.7,1.5-3.1,2.9-.5,1.4-.2,3,.8,4.2l12.3,14.7-1.3,19.2c0,1.5.6,3,1.8,3.9,1.9,1.4,3.8.7,4.3.5l17.8-7.2,17.8,7.2c1.4.6,3,.4,4.2-.5s1.9-2.4,1.8-3.9l-1.3-19.1ZM122.1,124.2c-.7.9-1.1,2-1,3.1l1,13.9-12.9-5.2c-1.4-.6-2.7-.2-3.3,0l-13,5.3,1-13.9c0-1.1-.3-2.3-1-3.1l-9-10.7,13.5-3.4c1.1-.3,2.1-1,2.7-1.9l7.4-11.8,7.4,11.8c.6,1,1.6,1.7,2.7,1.9l13.5,3.4-9,10.6Z"/>
</svg>